<?xml version="1.0" standalone="no"?><!DOCTYPE svg PUBLIC "-//W3C//DTD SVG 1.1//EN" "http://www.w3.org/Graphics/SVG/1.1/DTD/svg11.dtd"><svg t="1687140005709" class="icon" viewBox="0 0 1024 1024" version="1.1" xmlns="http://www.w3.org/2000/svg" p-id="2385" xmlns:xlink="http://www.w3.org/1999/xlink" width="200" height="200"><path d="M831.999723 575.999808H383.999872v-127.999957h447.999851L767.999744 319.999893h127.999957L1023.999659 511.999829l-127.999958 191.999936H767.999744l63.999979-127.999957z m42.120519-425.983858l-90.555703 90.52157A382.532139 382.532139 0 0 0 511.999829 127.999957C299.9295 127.999957 127.999957 299.9295 127.999957 511.999829S299.9295 895.999701 511.999829 895.999701c103.185032 0 199.7482-40.78932 271.35991-112.298629l90.41917 90.589837A510.497963 510.497963 0 0 1 511.999829 1023.999659C229.23939 1023.999659 0 794.760268 0 511.999829 0 229.23939 229.23939 0 511.999829 0c137.625554 0 266.751911 54.613315 362.120413 150.01595z" fill="#000000" p-id="2386"></path></svg>